<?xml version="1.0" encoding="utf-8"?>
<?xml-stylesheet type="text/xsl" href="rss1.xsl"?>
<rss version="2.0" xmlns:atom="http://www.w3.org/2005/Atom" xmlns:content="http://purl.org/rss/1.0/modules/content/" xmlns:dc="http://purl.org/dc/elements/1.1/" xmlns:media="http://search.yahoo.com/mrss/">
<channel>
 <title>Getty</title>
 <link>http://www.gettyimg.com/</link>
 <atom:link href="http://www.gettyimg.com/" rel="self" type="application/rss+xml" />

 
                <item>
                <title><![CDATA[【HD Live Performances】FEED - Ellie Goulding - Love Me Like You Do (MTV Europe Music Awards, 2015) [caladan]]]></title>
                <link><![CDATA[https://sharemania.us/threads/ellie-goulding-love-me-like-you-do-mtv-europe-music-awards-2015-caladan.224651/]]></link>
                <description><![CDATA[<article>
<blockquote class="messageText SelectQuoteContainer ugc baseHtml">
This is a fixed version of <a href="https://sharemania.us/threads/ellie-goulding-love-me-like-you-do-2015-mtv-europe-music-awards-2015-mtv-emas-feed-1080i-30-3mbps.224460/" class="internalLink">this video</a>. That original video had 2 very noticeable glitches (sudden loss of signal) that ruined its flow and affected the overall fps (which should be 25fps). I fixed them by using Avisynth and repeating the last good frame for each section as needed. <br>
<br>
Another subtle fix: the original video had a small black border at the top only. I cut it and added half at the top of the frame, half at the bottom for a symmetrical view. Also the audio was too quiet, so I raised its volume.<br>
<br>
Anyway, pick whatever version suits you better.<br>
<br>
<img src="https://i.postimg.cc/zDR47BQx/Ellie-Goulding-Love-Me-Like-You-Do-MTV-Europe-Music-Awards-2015-mp4.jpg" class="bbCodeImage LbImage" alt="[​IMG]" data-url="https://i.postimg.cc/zDR47BQx/Ellie-Goulding-Love-Me-Like-You-Do-MTV-Europe-Music-Awards-2015-mp4.jpg" style=""><br>
<br>
<div class="bbCodeBlock bbCodeVfcHH HiddenContent">
<div class="attribution type">Hidden Content:</div>
<blockquote>You must reply before you can see the hidden data contained here.</blockquote>
</div>
<div class="messageTextEndMarker">&nbsp;</div>
</blockquote>
</article>]]></description>
                <author><![CDATA[caladan]]></author>
                </item>

                
                <item>
                <title><![CDATA[【MASTER &amp; MASTER RIP】MASTER - Marina Sena - Tudo Pra Amar Você (Master AAC 1080p)]]></title>
                <link><![CDATA[https://sharemania.us/threads/marina-sena-tudo-pra-amar-voc%C3%AA-master-aac-1080p.224652/]]></link>
                <description><![CDATA[<article>
<blockquote class="messageText SelectQuoteContainer ugc baseHtml">
<img src="https://i.ibb.co/Bs9xgRv/Marina-Sena-Tudo-Pra-Amar-Voc-Master-AAC-1080p-mp4-thumbs.png" class="bbCodeImage LbImage" alt="[​IMG]" data-url="https://i.ibb.co/Bs9xgRv/Marina-Sena-Tudo-Pra-Amar-Voc-Master-AAC-1080p-mp4-thumbs.png" style=""><br>
<div class="bbCodeBlock bbCodeQuote">
<aside>
<blockquote class="quoteContainer"><div class="quote">General<br>
Format : MPEG-4<br>
Format profile : Base Media / Version 2<br>
Codec ID : mp42 (mp42/mp41)<br>
File size : 735 MiB<br>
Duration : 3 min 22 s<br>
Overall bit rate mode : Variable<br>
Overall bit rate : 30.5 Mb/s<br>
Encoded date : UTC 2023-02-18 03:24:20<br>
Tagged date : UTC 2023-02-18 03:24:25<br>
TIM : 00:00:00:00<br>
TSC : 24000<br>
TSZ : 1001<br>
Video<br>
ID : 1<br>
Format : AVC<br>
Format/Info : Advanced Video Codec<br>
Format profile : Main@L4.1<br>
Format settings : CABAC / 4 Ref Frames<br>
Format settings, CABAC : Yes<br>
Format settings, Reference fra : 4 frames<br>
Format settings, GOP : M=4, N=23<br>
Codec ID : avc1<br>
Codec ID/Info : Advanced Video Coding<br>
Duration : 3 min 22 s<br>
Bit rate : 30.1 Mb/s<br>
Width : 1 920 pixels<br>
Height : 1 080 pixels<br>
Display aspect ratio : 16:9<br>
Frame rate mode : Constant<br>
Frame rate : 23.976 (24000/1001) FPS<br>
Color space : YUV<br>
Chroma subsampling : 4:2:0<br>
Bit depth : 8 bits<br>
Scan type : Progressive<br>
Bits/(Pixel*Frame) : 0.606<br>
Stream size : 727 MiB (99%)<br>
Language : English<br>
Encoded date : UTC 2023-02-18 03:24:20<br>
Tagged date : UTC 2023-02-18 03:24:20<br>
Color range : Limited<br>
Color primaries : BT.709<br>
Transfer characteristics : BT.709<br>
Matrix coefficients : BT.709<br>
Codec configuration box : avcC<br>
Audio<br>
ID : 2<br>
Format : AAC LC<br>
Format/Info : Advanced Audio Codec Low Complexity<br>
Codec ID : mp4a-40-2<br>
Duration : 3 min 22 s<br>
Source duration : 3 min 22 s<br>
Bit rate mode : Variable<br>
Bit rate : 317 kb/s<br>
Maximum bit rate : 513 kb/s<br>
Channel(s) : 2 channels<br>
Channel layout : L R<br>
Sampling rate : 48.0 kHz<br>
Frame rate : 46.875 FPS (1024 SPF)<br>
Compression mode : Lossy<br>
Stream size : 7.66 MiB (1%)<br>
Source stream size : 7.66 MiB (1%)<br>
Language : English<br>
Encoded date : UTC 2023-02-18 03:24:20<br>
Tagged date : UTC 2023-02-18 03:24:20</div><div class="quoteExpand quoteCut">Click to expand...</div></blockquote>
</aside>
</div><img src="https://i.ibb.co/BVT8C9S/Marina-Sena-Tudo-Pra-Amar-Voc-Master-AAC-1080p-mp4-snapshot-00-45-336.png" class="bbCodeImage LbImage" alt="[​IMG]" data-url="https://i.ibb.co/BVT8C9S/Marina-Sena-Tudo-Pra-Amar-Voc-Master-AAC-1080p-mp4-snapshot-00-45-336.png" style=""> <br>
<div class="bbCodeBlock bbCodeVfcHH HiddenContent">
<div class="attribution type">Hidden Content:</div>
<blockquote>You must reply before you can see the hidden data contained here.</blockquote>
</div>
<div class="messageTextEndMarker">&nbsp;</div>
</blockquote>
</article>]]></description>
                <author><![CDATA[Athos]]></author>
                </item>

                </channel></rss>